<?xml version="1.0" encoding="utf-8"?>
<!-- Generator: Adobe Illustrator 24.1.1, SVG Export Plug-In . SVG Version: 6.00 Build 0)  -->
<svg version="1.1" id="Layer_1" xmlns="http://www.w3.org/2000/svg" xmlns:xlink="http://www.w3.org/1999/xlink" x="0px" y="0px"
	 viewBox="0 0 500 500" style="enable-background:new 0 0 500 500;" xml:space="preserve">
<style type="text/css">
	.st0{fill:#3011BA;}
	.st1{fill:#3713BA;}
	.st2{fill:#7725EB;}
	.st3{fill:#4717CC;}
	.st4{fill:#240EA5;}
	.st5{fill:#862AF1;}
	.st6{fill:#A63AF0;}
	.st7{fill:#651EDF;}
	.st8{fill:#5219D6;}
	.st9{fill:#3E17CE;}
	.st10{fill:#B33EF7;}
	.st11{fill:#5B1CD9;}
	.st12{fill:#9B35F0;}
	.st13{fill:#BC67E7;}
	.st14{fill:#9843D3;}
	.st15{fill:#5924B6;}
	.st16{fill:#BE40FB;}
</style>
<path class="st0" d="M76.3,280.2c1.9,8.7,5.3,16.7,5.1,26.3c5,11,8.9,21.8,14.3,32.4c0.6,0.2,0.7,0,0.8,0c0.4,1.9,1,3.6,2.8,5.3
	c0.9,1.4,0.8,2.6,1.8,3.8c0.5,0.2,0.3,0.2,0.4,0.1c0.3,0.8,0.4,1.7,0.3,3.2c-0.4,1-0.6,1.4-1.5,2.1c-3.7,1.6-6.4,0.6-8.7-1.5
	c-4.6-4.3-9.5-7.6-16.1-8.2c-3.6-0.3-5.4-3.2-5.9-7.4c-0.5-1.2-0.9-1.9-1.7-3c-12.6-25.1-17.8-51.1-17-78.4
	c0.2-5.3,0.4-10.6-0.5-16.6c0.7-13.6,1.7-26.5,6.6-39.3c9.7-0.9,12.6,7.1,17.4,12.6c1.1,1.2,0.9,3.4,2.6,5.2
	c0.5,1.3,0.6,2.1,0.4,3.5c-0.8,2.3-2.3,3.8-1.6,6.5c0.2,2.4,0.1,4.3-0.4,6.7c0.1,2.5,0.1,4.5,0,7.2c-2.2,8.5-1.3,16.4-0.5,24.9
	c0.4,2.6,0.6,4.5,0.6,7.2C75,275.9,77.4,277.5,76.3,280.2z"/>
<path class="st1" d="M272.3,388.7c-26.1,5-51.3,2.2-75.4-8.8c-46.6-21.2-71.5-58.9-80.9-107.8c-2-10.6-2-21.8-0.3-33.5
	c6.7-1.7,6.5,3.4,6.2,7c-0.6,7.4,0.5,13,8,16.5c4.5,2.1,5,8.7,10.6,10.9c3.3,9,5.8,17.6,9.4,26.5c1.1,2.4,1.2,4.5,2.6,6.7
	c0.4,0.9,0.6,1.3,0.8,2.3c1.3,12.1,9.9,19.2,16.4,27.6c1.5,1.9,4,3.4,4.2,5.6c0.7,9.3,6.4,14,14.3,17.2c1.6,0.7,3.2,2,3.9,3.6
	c6,15.6,21.3,15.7,33.8,19.1c7.2,2,15.1,3.3,23.5,3.2C257.9,384.3,265.7,381.6,272.3,388.7z"/>
<path class="st2" d="M169.8,143.2c22.8-18.4,48.7-26.4,77.1-27.3c5.3-0.2,10.6,0,16.7,0.1c-0.2,2.7-2.6,3.5-5,5.2
	c-5.2,2.9-5.6,5.6-0.9,8.7c4.2,2.8,8.2,5.7,9.2,11.7c-18-0.7-35.5,0.5-53.7,6.7c-2,0.7-2.9,1-4.5,1.4c-4.5,0.8-8.1,1.8-11,5.5
	c-0.9,0.7-1.4,1.1-2.7,1.9c-1.2,0.8-1.5,1.1-2.5,1.7c-3.2,1.1-6.1,1.5-7.9,3.6c-5.8,7-11.7,6.5-19.5,2.7
	c-11.1-5.3-11.8-6.5-2.1-16.1c0.7-0.9,0.9-1.4,1.4-2.4c0.7-0.8,1.2-1,2.5-1.4c0.8-0.6,0.9-0.9,1.4-1.1
	C169,144.1,169.2,143.8,169.8,143.2z"/>
<path class="st1" d="M215.3,454.3c-4.9-1.2-8.9-1.9-13.5-2.8c-2.5-1.1-4.4-1.7-6.9-2.7c-4.8-3.9-10.2-5.7-14.8-8.9
	c-8.7-6-16.2-13-23.2-21.1c-6.6-7.6-16.4-12.3-23.7-19.7c-3.9-3.9-8.9-7.2-8.7-14.3c0.6-1.4,1.2-2,2.6-2.6
	c7.5,1.5,11.5,6.9,16.2,12.2c4.6,5.6,10.9,7.9,16.3,12.5c0.5,0.3,0.3,0.5,0.2,0.3c0.6,0.9,1.7,1,3.3,1.6c0.5,0.2,0.4,0.2,0.4,0.1
	c9.7,7.9,22,10.3,33.5,15.8c0.5,0.4,1.3,0.5,1.7,0.6c1.7,1.1,3.4,0.6,5.3,1.3c0.5,0.3,0.4,0.4,0.4,0.3c0.5,0.5,1.1,0.9,2.4,1.4
	c1.9,1.2,3.5,1.2,5.7,1.3c2.7-0.1,4.8-0.7,7.3,1c5.6,5,11.4,6.6,18.4,6.5c6.4-0.1,12.7,1.4,18.6,4.9c5.2,3.1,10.5,6.6,17.2,6.7
	c3.3,0.1,6.2,1.9,7.4,6.1C259.6,460.1,238,458.6,215.3,454.3z"/>
<path class="st3" d="M207.7,267.7c0.3,0.6,0.5,1.2,0.5,1.6c3.2,8.2,8.1,14.9,14.5,21.4c0.8,7.6,5.2,9.9,11.6,10.6
	c9.8,1.1,18.5,11.1,17.6,20.8c-4.1,2.3-8,1.3-12.5,1.4c-19.7-1.8-33.9-11.8-44.6-26.8c-13.6-19-18-40.1-11.9-63.5
	c3.8-1.5,5.8,0.8,6.6,3.2c3,9.8,12.2,15.7,15.8,25.8C206.6,263.9,207.3,265.4,207.7,267.7z"/>
<path class="st4" d="M71.8,332.3c0.5,5.2,0.1,9.6,8,8c5.9-1.2,9.8,4.3,13.6,7.9c1.9,1.8,3.2,4,6.8,4.1c5.1,14.9,15.6,26.4,23.1,39.5
	c5.3,9.4,13.4,17.8,22.3,24.7c3.7,2.8,6.8,5.9,4.3,11.6c-20.2-8-35.1-22.6-48.9-38.4c-18.4-21.2-32.5-44.7-41.6-71.5
	c-8.7-25.7-11.1-51.9-9.3-79.6c3.9,1.7,3,5.6,2.7,9c-1.7,22.1,1.8,43.6,7.8,64.6C62.4,319.1,65.7,326.5,71.8,332.3z"/>
<path class="st2" d="M145.1,79.3c11.6-8.3,23.9-13.7,37.4-18c6.1,0.1,12.2,0.8,15.4,4.9c5.7,7.2,12.6,6.1,20,5.5
	c3.8-0.3,8.6-2.6,10.1,3.9c-24.8,4.9-48.2,12.5-70,26.1c-1.6,1.5-3.2,1.9-5,3.1c-0.5,0.3-0.5,0.7-0.7,0.6c-2.9,2.7-6.8,2.3-10.1,3.1
	c-4,0.9-7.6-0.9-9.8-4.6c-2.2-3.8-0.7-6.7,2.8-8.9c4.4-2.9-1.6-8,2.7-11.5c0.4-0.4,0.7-0.9,1-0.9C140.8,80.9,143.2,81.2,145.1,79.3z
	"/>
<path class="st5" d="M228.5,76.3c-7.1-3.9-13.4,0.8-19.9,0.4c-4.7-0.3-8.7,0.5-10.2-5.4c-0.7-2.7-3.6-4.6-6.1-4.1
	c-4.8,0.9-5.8-3.1-8.6-5.6c14-6,29.2-8.5,45-10.8c1.4,0.9,2.4,1.1,3.9,0.6c13.6-2.4,26.7-1,40.6-0.5c-0.1,4.7-4.4,3.2-7.5,5
	c-2.4,1.3-4.5,1.3-7.2,2.4c4.5,5.6,9.3,8.8,16.5,10c6.3,1,14.5,0.8,15.8,10.5c-17-2.3-33.8-4.6-51.6-3.5c-2,1.2-3.4,0.8-5.3,1
	C232,76.3,230.6,76.4,228.5,76.3z"/>
<path class="st3" d="M249.7,387.2c-19.4,1.1-37.2-3.8-54.2-11.6c-1.9-0.9-4.6-1.5-4.2-3.9c1.4-9.9-7-11.7-12.7-13
	c-5.1-1.2-6-2.6-6.3-7.1c-0.4-6.1-0.6-12.9-8.9-14.3c-0.5-0.1-1.4-0.7-1.4-1c0.5-10.8-12.8-16-10.9-28.1c3.2-1.9,4.1,0.6,5.2,2.6
	c2.7,4.9,5.8,9.5,10,14.1c0.4,0.5,0.7,1.1,0.8,1.5c0.4,0.9,0.8,1.4,1.6,2.2c0.4,0.3,0.3,0.3,0.3,0.2c0.7,1.2,1.4,2.4,3.2,3.3
	c0.5,0.3,0.3,0.3,0.3,0.3c0.3,0.4,0.8,0.9,1.5,1.6c0.4,0.3,0.2,0.3,0.3,0.2c4.3,5.4,10.3,8.9,15.7,13.9c0.6,0.2,0.4,0.3,0.4,0.2
	c6,4,12.7,6.7,19.7,10.3c1.5,0.9,2.5,1.4,4.2,1.6c2,0.4,3.3,1.2,5.1,2.1c2.4,1.7,4.7,1.6,7.5,1.8c1,0.3,1.4,0.4,2.3,0.9
	c9,2.3,17.1,4.6,20.3,14.2C250.4,381.8,251.7,384,249.7,387.2z"/>
<path class="st6" d="M377.8,127.6c-23.7-22.4-50.4-38.6-82.1-47.3c-1.2-4.5-3.8-6.7-7.7-8.2c-5.7-2.2-11.2-5.1-16.3-8.4
	c-3.5-2.3-7.9-4.9-3.8-10.6c7.7-0.8,14.5,0.1,21.9,1.9c0.6,0.4,0.8,0.4,0.8,0.4c6.8,0.7,13.3,2.7,20.4,4.8c2.3,3.4,3.2,7,7.8,7.2
	c3.5,0.1,5.1,3.7,7.8,5.5c14.4,9.7,24.6,24.4,39.8,33.4c5.3,3.1,9.6,6.9,16.7,6.1c6.5-0.8,7.1,5.8,8.8,11.1
	c-2.1,4.6-4.1,8.9-10.4,7.6c-0.9-0.6-1.2-0.7-1.7-1.3C379,129,378.5,128.6,377.8,127.6z"/>
<path class="st0" d="M149.3,428.7c-0.4-9.3-10.5-9.8-14.3-16.1c-5.5-8.9-15.8-14-18.9-25.1c-2.4-8.7-12.2-13.4-13.5-23.4
	c-0.4-3.4-1.7-6.8-1.8-11.1c0-0.7,0.1-0.8,0.1-0.9c0.4-0.4,0.7-0.8,1.5-0.7c0.5,0.5,0.4,0.5,0.4,0.5c6.4,8.7,12.9,17.4,21.4,25.2
	c1,1,1.5,1.7,2.1,3c0.4,1.4,0.5,2.2,0,3.5c6.8,13,18.2,21.3,29.8,28.5c5.6,3.5,7.1,6.5,6.4,11.7c4.9,1.2,8.4-6.7,12.4-1.5
	c2.7,3.6-2.8,4.1-4.9,6.7c7.3,5,13.7,11.1,22,14.2c1.9,0.7,3.1,1.7,3.5,4.3c-0.3,1.6-1,2-2.6,1.3c-0.5-0.5-0.7-0.4-0.8-0.5
	c-1.4-0.9-2.9-0.6-4.6-1.3c-0.7-0.6-1-0.7-2-1c-2.6-1-4.8-1.6-7.1-3.1c-1.3-0.3-2.2-0.4-3.6-0.8c-6.7-3.3-12.7-6.6-19.5-9.5
	c-0.4-0.5-0.6-0.4-0.6-0.5c-1.4-1.1-2.9-1.8-4.7-3C149.6,428.8,149.3,428.8,149.3,428.7z"/>
<path class="st2" d="M239.9,183c3.5-1.4,6.7-2.2,10.8-1.8c0.9,0.4,1.1,0.7,1.5,1.5c3.3,4,8.2,2.6,11.9,5.6
	c6.5,5.2,8.7,11.6,4.3,20.1c-8.4-1.1-16.2-1.9-24.7-0.6c-9.7,0.7-16.8,5.4-23,11.5c-4.7,4.6-8.9,6.4-11.8-1.6
	c-0.8-2.2-2.7-2.9-4.4-4c-7-4.4-7-6.4-0.4-13.2c0.4-0.5,0.6-1.3,0.9-1.5c1.7-2.3,4.5-2.4,6.5-4.7c0.5-0.3,0.7-0.7,0.9-0.7
	c3.7-3.4,8.4-4.6,13.2-6.8c0.6-0.2,0.7-0.5,0.8-0.4c0.5-0.7,1.1-1.1,2.4-1.1c0.8,0,1.1,0,2-0.4c2.6-0.8,4.6-1.2,7.2-1.6
	C238.7,183.2,239.5,183.1,239.9,183z"/>
<path class="st7" d="M138,83.3c0.1,4.4,2.1,7.7,5.6,10.4c1.5,1.2,3.8,2.4,1.9,4.9c-1.3,1.6-3.1,1.4-4.8,0.6c-2.3-1-5.5-3.4-6.3,0.6
	c-0.8,3.9,2.7,5.8,6.2,5.5c3.5-0.3,7-0.5,11.1,0.2c-9.6,9.4-21.5,16.9-30.2,28.8c-0.7,0.7-1.1,1-2.3,1.4c-1,0.5-1.4,0.8-2.4,1
	c-7.6-2.2-12.2-8-18.9-11.8c-0.6-0.9-0.8-1.3-0.6-2.2C108.4,106.6,122.5,94.6,138,83.3z"/>
<path class="st7" d="M379.7,411.1c-2.8,3.4-6.1,5.7-10.2,7.9c-7.3,1.8-13.8,4.7-20.2-1.4c-1.7-1.6-5.6,0.6-8.4,1.5
	c-3.5,1.1-6.9,1.9-9.9-2c0-4.5,3.6-4.7,5.9-6.1c9.2-5.4,18-11.3,26.2-19.1c0.7-0.8,0.9-1.1,1.7-1.8c0.5-1.1,0.8-1.5,2-1.8
	c0.5-0.1,0.4-0.4,0.5-0.4c0.8-1,1.6-1.9,3-3.1c0.5-0.4,0.6-0.8,0.8-0.8c2.9-1.9,5.3-4,7.6-6.2c7-6.8,9.3-6.6,17.3,1.4
	c7,6.9,7,8.5,0.2,15.8c-2,2.2-4.1,4.2-6.8,6.6c-0.8,0.9-1,1.3-1.8,2.1c-0.8,0.8-1.2,1.2-2.3,2c-0.7,0.4-1.1,1-1.5,1.1
	c-0.7,0.6-1.1,1.1-2.2,2.1C380.9,410.3,380.6,410.8,379.7,411.1z"/>
<path class="st8" d="M330.6,416.1c5.8,3,9.5-1.4,13.9-2.6c2.2-0.6,5.3-3.2,6.4-1.2c4.2,7.7,11.4,5.1,17.8,6.4
	c-3.6,4.4-8.2,7.3-13.7,10c-0.8,0.4-1,0.8-1.7,1.2c-0.5,0.2-0.7,0.5-0.9,0.5c-0.9,1.9-2.8,0.8-4.4,1.8c-0.8,0.9-1.2,1.4-2.1,1.9
	c-4.4,3-10,2.6-14.1,6.6c-0.5,0.4-0.5,0.6-0.6,0.6c-0.2,0.3-0.3,0.6-0.9,0.7c-0.9,0-1.4,0.3-2.6,0.7c-1.2,0.3-1.6,0.4-2.6,0.3
	c-7.3,2.2-13.7,2.1-20.1-1.2c-4.3-2.2-8.9-2.4-13.8-1.3c-6,1.4-11.8,1.2-16.1-5.2c-0.3-1.5-0.2-2.4,0.5-3.7c0.7-0.6,1-0.7,1.8-0.6
	c5.7,0.5,10.5-1.7,16-3c1.3-0.4,2.1-0.5,3.5-0.7C309.1,425.5,319.1,419.3,330.6,416.1z"/>
<path class="st9" d="M76.6,218.7c-6.4-6.8-12.4-13.2-18.8-20c-1.1-2.4-1-4.5,0.7-6.9c0.4-1.3,0.4-2.1,1.1-3.2
	c1.5-9.5,5.9-17.4,10.2-26.1c0.7-1,0.9-1.6,1.6-2.8c1.8-3.8,4.9-5.2,6.8-3.2c4.8,5,12.6,6.9,15.3,14.8c-3.9,11.3-9.1,21.4-12.3,32.4
	c-0.9,3.1-2,6.1-1.9,10.1c-0.1,1.4-0.2,2.2-0.4,3.6C78.5,218.7,77.9,219,76.6,218.7z"/>
<path class="st7" d="M339,358.8c-2.9,3.5-6.1,5.8-10.2,8.2c-2.3,0.2-4.2,0.2-5.6-0.9c-5.3-3.9-10.7-6.8-17.7-4.1
	c-2.4,0.9-5.2-0.3-7-3.5c-0.1-1.1-0.1-1.5,0.3-2.5c13.2-8.5,24.8-17.9,34.9-29.2c1.6-1.7,3.4-3.5,6.4-1.6c4,2.5,7.6,5,11.4,7
	c5,2.6,6.1,5.8,2.1,10.9c-0.4,0.6-0.3,0.4-0.3,0.5c-0.8,0.4-1.4,0.9-2,2.2c-2.2,5.1-5.6,8.3-10.3,11.3
	C340.4,358.1,340,358.5,339,358.8z"/>
<path class="st3" d="M275.2,433.8c6,3.4,11.2,5.6,17.4,1.9c1.7-1,4.6-0.2,6.9,0.3c8.7,2,16.8,6.9,26.4,6.4c-0.2,1.2-0.5,1.5-1.9,2.4
	c-2.8,1-4.5,1.4-6.8,1.9c-0.5,0.1-0.8,0.9-1.2,0.8c-1.3,0.2-2.2,0.5-3.8,0.8c-3.6,1.6-7.4,0-10.5,2.9c-0.9,0.2-1.3,0.4-2.2,0.6
	c-4,1.7-8.4-0.5-12,2.9c-2,0.3-3.3,0.5-5.4,0.7c-15.7-2.1-27.6-12.8-42.3-15.2c-7.4-1.2-15.2,0.3-20.9-7.2
	c6.4-3.9,13.1-0.7,19.5-0.3C250.5,433.6,262.5,431.6,275.2,433.8z"/>
<path class="st10" d="M336.1,177.5c-1.7-1.2-2.9-2-4.6-3.2c-0.8-0.7-1.1-1-1.8-1.8c-0.6-0.7-0.8-1-1.3-1.8
	c-14.1-11.7-27.1-23.9-37.5-38.5c-1.4-2-2.4-4.1-1.1-7.1c7.4-2.7,13.1,1.4,18.9,3.9c14.3,6.1,26.9,15,38.1,25.8
	c8.4,8.1,8.4,8.1-0.5,17.3c-0.5,0.5-0.8,1.2-1.1,1.3c-0.8,0.7-1.4,1.3-2.4,2.1c-0.6,0.6-0.8,0.9-1.4,1.4
	C339.6,178.5,338.1,178.6,336.1,177.5z"/>
<path class="st9" d="M140.6,272.8c-3.2,3.4-5.7,6.2-7.8-0.2c-1.7-5.2-4.8-8.6-10.9-10.4c-7.4-2.2-3.4-9.6-4-14.7
	c-0.4-3,2-6.3-1.4-9.5c-0.5-1.2-0.5-2-0.3-3.5c0.2-0.6,0.1-1.5,0.5-1.7c0.5-1,0.6-1.9,0.9-3.3c1.6-4.8,2-9.2,2.6-14.1
	c0.7-1.4,0.9-2.2,1.5-3.7c0.7-0.9,1-1.3,1.8-2c5.1-1.9,7.4,0.8,9.9,4.1c3,4,4,9,7.5,13.5c1.4,2.8,0.2,5,0.3,7.9
	c0.2,1.5,0.2,2.3,0.2,3.8C139.2,250.5,140.4,261.3,140.6,272.8z"/>
<path class="st11" d="M251.7,322.3c-4.5-9.1-9.9-17-19.9-18c-8-0.8-10.9-4.5-11.2-12.4c3.9-1.9,6.2,2.2,10.4,2.6
	c0.6,0.3,0.6,0.4,0.6,0.4c0.1,0.3,0.3,0.6,1.1,0.9c18.4,6.4,34.9,4.1,50.9-7.5c1.4,1.4,1.3,2.6,1.2,3.8c-0.3,3.2-5.7,5.5-3.5,8.1
	c2.9,3.4,7.7,5.1,12.7,4.9c1.2-0.1,2.3,0.2,4.4,1.4c-0.3,3.4-2.8,4.6-5.6,6.2c-7.5,4.7-15.5,6.8-24.1,9.1c-2.1,0.2-3.5,0.4-5.5,1.2
	C258.8,323.6,255.5,324,251.7,322.3z"/>
<path class="st8" d="M250.1,387.7c-3.5-5.1-6.1-10.3-9.1-15.2c-1.5-2.6-4.5-2.6-7.2-2.2c-2.7,0.4-5.4,1.3-6.1-3.3
	c4.9-4.5,9.9-0.2,15.6-0.6c6.9,0,13,0,19.8,0c8.9,0.9,17,1.8,24,6.7c3.1,2.1,6.8,0.7,10.3,0.9c3.5,0.2,7,0.9,10,4.2
	c-4.6,4.3-10.5,5.7-16.9,7.6c-1.6,1.8-3.2,0.9-5,1.2c-1,0.1-1.4,0.3-2.5,0.5c-1.3,1.6-2.6,1.2-4.3,1c-2,0.1-3.4,0.5-5.6,0.9
	C265.3,387.8,258.1,387.7,250.1,387.7z"/>
<path class="st11" d="M308.5,378.7c-15.8,2.6-28.6-5.2-42.6-10.1c-0.7-0.8-0.9-1.2-0.7-2.2c11.6-1.6,21.9-6,33.2-9.1
	c2.6,1.8,5.1,2.5,7.2,1.2c10.5-6.4,16,1.2,22.4,8.1C322.7,372.4,315.9,375.4,308.5,378.7z"/>
<path class="st12" d="M290.5,124.5c7.9,7.5,12.2,17.6,20.2,24.6c4.1,3.7,5.9,10.3,13.7,7.6c1.7-0.6,3,2.1,1.7,3.8
	c-2.7,3.6-0.4,6.1,1.8,9.2c-12.5-8.2-25.2-16.8-40.4-22.5c-0.9-0.7-1.2-0.9-2-1.6c-6.1-5.8-9.3-13.3-16.2-17.5
	c-2.8-1.7-4.3-4.7-3.6-8.9c0.5-0.9,0.8-1.3,1.7-1.8c2.9-0.3,5.1-0.3,7.9,0.1c0.9,0.4,1.3,0.5,2.1,0.8
	C282,120.7,287.6,119.1,290.5,124.5z"/>
<path class="st11" d="M203.9,200.2c-2.3,6.2-5.1,11,6.9,10c9.1-0.8,0.3,6.4,2.2,10.4c9.9-2.6,15.6-14.8,28.1-13.2
	c1,0.2,1.2,0.4,1.2,1c-10.8,1.9-17.8,9-25.3,16.5c-0.6,0.8-0.7,1.1-1.3,1.7c-0.5,0.2-0.5,0.4-0.6,0.4c-2.8,3.5-4.8,7.4-6.6,12.1
	c-0.4,0.5-0.3,0.6-0.4,0.6c-0.4,0.3-0.7,0.5-1.7,0.8c-6.9-3.5-12.1-9.1-20.4-10.2c-0.8-0.6-1.1-0.9-1.1-1.8
	C188.4,216.8,194.8,207.8,203.9,200.2z"/>
<path class="st7" d="M162.9,148.8c0.2,1.3,0.2,3-0.7,4c-4.1,4.6-5.9,5.1,2.6,8.2c9.2,3.3,15,3.7,21.7-2.8c0.7-0.6,2.8,0.2,4.7,0.6
	c-8.2,7.6-17.5,14.3-25.3,23.5c-4.7,1-8.8,0.3-12.9,0c-7.9-0.6-10.2-4-8.6-13.3C149.5,161,155.8,154.8,162.9,148.8z"/>
<path class="st3" d="M141,229.2c-5.4-1.6-6.7-5.8-9-9.6c-1.8-3-1.7-7.8-7.2-8.5c-2.1-1.8-1.4-3.8-1-6.4c0.5-1,0.6-1.4,1-2.2
	c0.3-0.8,0.3-1.1,0.8-1.6c0.6-1.1,0.8-2.1,1.3-3.7c0.3-0.9,0.2-1.2,0.5-1.6c1.6-2.5,2.7-5,4.3-7.8c8.5-0.2,16.1,1.3,22.8,7.4
	c0.5,1.1,0.6,1.5,0.4,2.6c-0.4,1-0.4,1.3-0.7,2c-5.6,8.8-9,18-11.3,28.3C142.3,229,141.9,229.2,141,229.2z"/>
<path class="st8" d="M92.9,172.2c-3-2.4-4.6-5.9-9.2-4.8c-3.1,0.8-3.9-1.7-4.3-4.2c-0.5-3.9-2.3-6-7.1-4.2
	c3.2-9.2,8.8-17.4,15.7-25.4c2.2,0.3,3.4,1.7,3.9,3.4c2.5,7.8,10,8.2,16.2,11.5c-3.6,7.1-7.4,13.6-11.5,20.6
	C95.9,171,94.7,171.7,92.9,172.2z"/>
<path class="st13" d="M310.4,63.1c-5.7-5.2-13.1-3.4-19.3-7.1c12.5-1,24,4,35.7,8.4c25.5,9.6,47.5,24.5,67.1,43.2
	c6.1,5.8,7.9,10.8,0.1,16.1c-4.1,2.8-5.2,10.7-13,7.4c4.6,0.1,7.2-2.7,9.4-7c1-7.1-1.8-11.3-6.9-15.5
	c-14.9-12.2-30.3-23.5-47.7-32.1C327.4,72.4,319,68.1,310.4,63.1z"/>
<path class="st5" d="M269.2,208.1c-0.9-2.8-1.5-5.1-1.9-7.4c-1.7-10.2-5.7-13.3-15.9-12.1c-2.4,0.3-5.1,1.2-6.1-1.6
	c-1.3-3.8,2.1-4,5.3-4.6c7.2-2.8,12.7,1.2,19.1,3.1c4.3,0.6,4.5,6.8,9.8,5.6c1,0.1,1.4,0.1,2.4,0.5c7.2,7,11,15.3,14.3,24.6
	c0.6,1.4,0.6,2.2,0.1,3.6c-4.3,8.1-8.2,5.2-12.6,0.1c-0.8-0.6-1.1-0.7-1.3-1.3c0.2-0.5-0.4-0.8-0.7-1.1c-0.6-0.2-1-0.2-1.5-0.8
	c-0.1-0.5-0.4-0.5-0.4-0.7c-1.6-1-3.1-1.8-4.9-3c-0.3-0.4-0.5-0.4-0.5-0.5C272.7,211.2,271.2,209.8,269.2,208.1z"/>
<path class="st5" d="M266.4,117.8c1.2,3.1,1.9,6.2,4.4,7c9.1,3.2,11,12.1,15.8,19.4c-5.2,3.1-9.6-0.6-15-1.8c-1.5,0-2.4,0-4,0
	c-6.4-3.5-10.1-9.5-17.4-11.3c-4.6-1.2,0.4-5.5,0.1-8.5c-0.6-5.5,3.5-4.3,7.2-4.6C260.5,116.6,263.2,117.4,266.4,117.8z"/>
<path class="st11" d="M108.4,149.1c-4-2-7.8,5.5-11.3,1c-3.6-4.6-10.4-7.8-8.5-16.1c0.4-1.3,0.8-2,1.7-2.9c0.8-1.9,1.9-3,3.3-4.6
	c0.5-0.3,0.6-0.9,0.8-1c0.2-1.5,1.1-2.3,2.7-2.4c10-1.3,13.2,8.1,19.9,12.1c1.4,2.5-0.3,3.5-1.5,5.1c-0.5,0.4-0.6,0.9-0.9,1
	c-0.3,0.4-0.3,0.7-0.8,1.2c-0.6,0.7-0.8,1.2-1.4,2.3c-0.6,0.8-0.9,1-1.6,1.5c-0.8,1-1.2,1.5-2.2,2.3
	C108.4,149,108.4,149,108.4,149.1z"/>
<path class="st11" d="M154.9,196.5c-7.4-3-16-1.7-22.1-8.7c-0.2-1.1,0.2-1.9,0.9-3.2c0.3-1.2,0.4-1.9,1.1-2.6
	c0.5-0.1,0.7-0.9,1.4-1.6c0.9-1.3,1.1-1.9,1.5-3.2c3.3-2.4,3.4-6.2,6.3-8.6c1.6,6.9,3.9,12.2,13.1,9.3c3-0.9,5.6,1.1,8,4
	c-1.8,3.8-3.9,7.1-6.5,10.8C157.2,194.3,156.6,195.6,154.9,196.5z"/>
<path class="st12" d="M266.8,53.4c5.8,10,17.1,10.9,25,17c3,2.3,6.2,3.8,3.7,8.9c-1.5,0.6-2.7,0.6-4.4,0.3
	c-4.4-6.1-11.1-7.6-16.6-7.4c-10.4,0.2-15.1-8.5-22.8-12.3c-3.2-1.6-2.2-5.2,2.1-5.9c2.9-0.5,5.8-0.9,9.4-1.5
	C264.5,53,265.5,52.9,266.8,53.4z"/>
<path class="st8" d="M184.6,229.3c6.4-7.8,9.7,0,13.9,1.4c3.8,1.3,6.5,3.9,7.9,8.5c1.7,3,0.5,5.4,0.1,8.5
	c-0.4,5.7,0.6,10.7-1.2,16.3c-8.4-9-17.8-17.7-21.5-31C183.5,231.7,183.6,230.9,184.6,229.3z"/>
<path class="st13" d="M291.1,125.1c-3.7-3.8-9.1-2.6-12.8-6.1c28,3.5,51.1,17.7,72,36.5c8.7,7.8,1.3,11.9-4.1,16.8
	c6.6-7.3,3.7-12.8-3.3-18.5C327.5,141.2,311.6,129.8,291.1,125.1z"/>
<path class="st14" d="M271,188.2c-6.6-1.8-11.6-6.6-19.1-5.9c-0.7,0-0.6-0.6-0.6-0.8c19.9,0.2,37.1,6.9,52,20.3
	c6.4,5.8,7.3,9.8-0.5,14.4c-2,1.2-3.9,2.5-6.4,3.9c-0.7-0.3-0.7-0.8-0.7-1.6c6.1-14.3-7-17.6-14-25c-0.5-0.4-1.2-0.6-1.6-0.6
	C276.2,193.1,274.4,189.8,271,188.2z"/>
<path class="st15" d="M140.3,274.1c-1.5-11.6-3.7-22.6,0.7-33.9c-3.1,31.2,7.1,58.8,25.5,84.7c-8.1-2.3-8.9-11.5-15-17
	c-0.5-0.3-0.5-0.3-0.5-0.3c-1.3-1.1-1.8-2.6-1.8-4.9C146.2,292.9,143.3,283.9,140.3,274.1z"/>
<path class="st13" d="M374.8,191.6c-4.4,2-7.5,6.8-12.1,4.3c-2.6-1.4-5.3-5.7-3-8.7c3-3.9,6.5-10.1,11.7-8.5
	C374.2,179.6,380,185.3,374.8,191.6z"/>
<path class="st15" d="M331.6,416c-11.1,4.9-21.2,11.1-33.6,11.6c11.8-5.5,24.4-9.9,36.2-16.5c10-5.6,19.5-11.9,28.9-19.4
	c-5.3,9.4-15.3,14-24.1,20C336.7,413.1,334.4,414.3,331.6,416z"/>
<path class="st15" d="M275.9,433.7c-18.7,3.1-37.1,0.9-56.4-1.2c-2.7-0.6-4.6-1.1-7-2.7c6.6-3.1,13.2,1,20.3,1.2
	c13.9,0.5,27.7,0.7,42.4-0.1C276,431.8,276,432.5,275.9,433.7z"/>
<path class="st15" d="M357.4,296.9c8.9,4.1,2.7,8.6,1.1,13c-1.1,2.9-2.4,5.1-5.6,2.9c-3.9-2.7-9.7-4.7-6.3-11.5
	c1-2.1,2.1-4.2,3.8-6.3C353.1,294.9,354.8,296.4,357.4,296.9z"/>
<path class="st14" d="M389.5,402.1c1.2-1.9,2.9-4,4.6-5.9c6.8-7.7,6.5-10.9-1.4-17.3c-4.6-3.7-8.7-4.6-13,0.4
	c-1.9,2.2-3.9,4.5-7.7,4.9c0.7-1.1,1.9-2.3,3.2-3.5c11.8-11.5,16.6-10.9,26.8,2.3c2.2,2.9,1.6,4.9-0.3,7
	C397.9,394,393.8,397.9,389.5,402.1z"/>
<path class="st15" d="M379.4,271.8c0,4.3,0.4,8.6-3.7,9.7c-3.3,0.9-7.5,0.2-10.1-2.2c-2.8-2.5-0.6-6.1,0-9.2c0.7-3.6,3.3-3.8,6-3.6
	C374.9,266.9,379.4,265.2,379.4,271.8z"/>
<path class="st15" d="M244.2,367.8c-5.4-0.3-10.2-0.9-15.8-1.5c-0.8,0-1.4,0-1.8-0.1c-2.4-1-4.8,0.5-7.3-1.3c-1.9-1-3.2-1.5-5.1-2.1
	c-1.7-0.1-2.7-0.4-3.9-1.6c-6.9-3.9-14.2-6.1-19.7-12.5c11.3,2.2,20.8,10,32.5,12.5c8.7,1.9,17.3,3.9,27.1,3.6
	C250.3,369.4,246.7,366.3,244.2,367.8z"/>
<path class="st13" d="M392.6,156.5c11.1-7,8.4,5.4,12.5,8.3c1.6,1.1,2.8,3.8,0.5,5.2c-1.8,1.1-5.7,2.1-6.4,1.3
	C395.8,167.2,388.9,164.4,392.6,156.5z"/>
<path class="st14" d="M373.5,221.4c-3.7,0.9-7.5,4.2-9.6-0.7c-1.2-2.8-5.6-6.3-1.6-9c3-2,7.9-5.9,11.1-2.8
	C376.1,211.5,379.3,216.7,373.5,221.4z"/>
<path class="st15" d="M394.1,318.4c2.4,4.6-0.6,7.9-1.5,11.4c-0.6,2.3-1.1,7-5.6,4.1c-2.7-1.8-6.7-3.5-3.8-8.3
	c1.4-2.3,2.5-4.7,3.5-7.2C388.7,313.4,391.1,315,394.1,318.4z"/>
<path class="st14" d="M428.2,150.1c-9.2,3.3-7.4-5.7-10.7-8.8c-3.5-3.1,1.4-4.2,2.7-5.9c3.1-4,6.2-2.4,6.6,1.5
	C427.2,141.4,435.5,144.6,428.2,150.1z"/>
<path class="st15" d="M124.7,379.4c-9.5-7.4-17.3-15.5-21.7-26.9c8.9,8.4,17.8,17.6,24.9,29c-0.3,1.1-0.7,1.6-1.4,2.3
	c-0.4-0.5-0.4-1.2-0.5-2.6C125.7,380.4,125.4,380.1,124.7,379.4z"/>
<path class="st15" d="M400.7,350.9c1.2-4.5,0.4-10.6,7.4-9.6c2.1,0.3,4.5,2.7,4.5,5.1c0,3.4-2.2,6.2-4.9,8
	C404.3,356.5,403.4,352.2,400.7,350.9z"/>
<path class="st7" d="M426.6,205.1c2.2,4.9,0.3,6.6-3.7,7.2c-3.2,0.5-6.2,0.3-6.9-3.5c-0.4-2.4-2.6-5.5,0.9-7.1
	C420.6,200.1,424.5,199.3,426.6,205.1z"/>
<path class="st4" d="M92.1,172.6c1.4-1.3,2.4-2,3.9-2.9C90.3,183.9,83.2,198,79.7,214c-3-10.8,4.6-19.5,7.2-29.5
	C88,180.6,90.1,176.9,92.1,172.6z"/>
<path class="st15" d="M384.7,297.1c1-4.9,3.3-6.2,7.7-5.1c3.8,1,3.4,3.5,3,6c-0.3,2.4,0.1,6.3-3.4,6
	C388.6,303.8,384.1,303.2,384.7,297.1z"/>
<path class="st15" d="M389.1,249.6c-1.3-1.4-2.3-2.6-2.5-4c-0.6-3.2-3.3-7.1,1.5-9.1c2.1-0.8,6.1-1.9,6,2.4
	C394,242.8,398,248.9,389.1,249.6z"/>
<path class="st15" d="M407,272c0.5-5.8,4.1-5.7,7.7-5.1c2.9,0.5,3.5,2.6,2.6,5.3c-0.9,2.5-0.3,6.1-4.7,6
	C408.8,278,406.1,277.2,407,272z"/>
<path class="st15" d="M197.5,424.6c-12.5-1.2-23.8-6.1-33.8-15C174.8,414.2,186.7,417.6,197.5,424.6z"/>
<path class="st14" d="M417.1,172.7c-3-4.1-0.8-5.6,2.3-6.8c5.5-2.1,4.8,3.7,7,5.7c1.6,1.5,1.4,3.4-1,4.9
	C421.1,179.2,419.2,176.4,417.1,172.7z"/>
<path class="st14" d="M283.7,287.7c2.8-8.4,7.3-8,12.6-2.4c3.5,3.7,8.8,5.6,10.7,11.1c0.7,2.2,0.7,3.1-1.4,4.2c-0.8,0-1.2,0-2.2-0.4
	c-6.7-4-11.3-10.3-19.3-12C283.5,287.8,283.6,287.8,283.7,287.7z"/>
<path class="st15" d="M231.1,294.3c-3.4,0.9-6.6-0.3-10.1-2.9c-6.1-6.2-11.7-12-12.8-21.2C214.9,278.5,220.6,288.3,231.1,294.3z"/>
<path class="st14" d="M329,258c0.8-4-2.5-8.8,2.9-10.4c2.5-0.7,6.6-2.1,8,0.9c1.6,3.6,2.3,9-0.5,11.7C337,262.5,332,263.2,329,258z"
	/>
<path class="st15" d="M335.1,231.2c-1.6-3.9-2.2-7.1,2.3-8.2c5.2-1.2,3.9,4,5.5,6.3c1.2,1.8,3.4,5.1-0.6,6.4
	C339.2,236.8,335.6,236.7,335.1,231.2z"/>
<path class="st15" d="M314.3,233.3c-1-3.3-4.6-6.3,0.4-8.5c2.3-1.1,4.8-1.6,5.5,1.6c0.6,2.8,4.8,5.5,1.7,8.4
	C320,236.7,316.3,239.3,314.3,233.3z"/>
<path class="st1" d="M429.9,332.3c0.1-3,0.2-6.5,3.1-5.9c3.2,0.7,6.6,3.1,7.5,6.6c0.5,2-1.7,4.9-3.9,5.3
	C433,339,430.6,336.7,429.9,332.3z"/>
<path class="st15" d="M299.1,356.8c-10.2,5.6-20.8,9.1-33,9.7c-2.5,1-4.3,1.1-6.1-0.8c13.2-1,25.4-5.9,38.4-10.2
	C299.1,355.7,299.1,356.1,299.1,356.8z"/>
<path class="st15" d="M350.9,274.8c0,2.4,0.1,4.5-0.2,6.5c-0.3,2.4-0.9,4.8-4.2,4.1c-2.6-0.6-5.2-1.6-4.9-5c0.2-2,0.7-4,1.3-6.5
	c1.8-1.4,3.3-1.7,5.7-0.8c0.7,0.4,0.6,0.4,0.6,0.4C349.8,273.7,350.3,274,350.9,274.8z"/>
<path class="st1" d="M96.2,338.5c-9-7.5-11.2-19-14.8-30.5C88.8,316.3,90.8,327.8,96.2,338.5z"/>
<path class="st15" d="M356.6,238.6c1.8-4.5,4.7-4.1,7.1-2c2,1.8,2,4.8,1.3,7.5c-0.5,2.2-2.3,2.5-4.2,2.4
	C356.2,246.1,356.6,242.5,356.6,238.6z"/>
<path class="st15" d="M416.8,244.3c-6.3-0.9-5-5-3.4-7.8c1.4-2.3,5.4-2.4,6.8-0.1C421.8,239.1,422.9,243.3,416.8,244.3z"/>
<path class="st4" d="M438.1,364.4c-2.1,3.2-2.3,8.9-7.2,6.2c-4.2-2.3-1.9-6.6,0.3-9.2C435,356.6,437.5,358.1,438.1,364.4z"/>
<path class="st1" d="M441.4,269.6c-5.8-0.6-4.4-4.4-4-7.3c0.4-2.7,2.8-2.6,4.9-2.6c2.2,0,4.8,1,4.2,3.2
	C445.8,265.4,447.5,270.2,441.4,269.6z"/>
<path class="st15" d="M268.1,207.6c3.1,0.5,4.9,1.6,6.2,4.3c-9.8-3.6-20.1-5.1-31.6-3.1c-0.7,0-0.8-0.8-0.9-1.1
	C250.4,204.3,258.8,205.6,268.1,207.6z"/>
<path class="st14" d="M396,189.3c0.9,2.6,4.8,5.4-0.1,8c-2.4,1.3-5.3,2.5-7.2-0.1c-1.4-1.9-3.3-4.7-1.8-7.3c2.2-3.7,5.6-3.9,9.2-1.2
	C396.1,189.2,395.8,189.5,396,189.3z"/>
<path class="st14" d="M353.7,343.4c1.6-4.2,0.4-7.3-4-10c-3.2-1.9-7.1-3.1-9.3-7.3c6.2-0.3,10.5,4.3,15.3,7.4
	C361.2,337,355.1,339.9,353.7,343.4z"/>
<path class="st1" d="M142.9,228.5c0.6-9.8,3.2-19.7,10.6-28C150.9,209.6,145.7,218.3,142.9,228.5z"/>
<path class="st15" d="M250.4,321.8c4.3,0,7.9,0,12.3,0c1,0.2,1.2,0.5,1.1,1.2c-8.1,2.4-16,1.3-24.5,0.7
	C242.1,321,246,322.1,250.4,321.8z"/>
<path class="st15" d="M444,193.1c-0.2-3.6,0.6-6.4,4-6.1c3.4,0.3,2.9,3.7,3.4,6.2c0.5,2.3,0,3.8-2.4,4.7
	C444.9,199.1,444.5,196.5,444,193.1z"/>
<path class="st4" d="M423.7,302.7c-1.6,3.5-3.5,4.7-6.5,2.6c-1.7-1.2-2-3-0.9-4.6c1.2-1.8,1.2-5.2,4.4-4.7
	C424.1,296.4,424.3,299.2,423.7,302.7z"/>
<path class="st13" d="M267.9,53.8c-1.7-0.3-2.5-0.6-3.8-1.2c2.6-0.5,5.6-0.8,9.2-1.2c5.9,0.8,11.5,0.5,16.8,3.5
	C283,56.4,275.9,54.2,267.9,53.8z"/>
<path class="st15" d="M349.9,208.9c-4.1,5.4-5.7,1.1-7.4-1.7c-1-1.7-1.8-4.2,1-5.1C349.3,200.3,347.7,206.3,349.9,208.9z"/>
<path class="st15" d="M266.8,320.5c8.7-1.2,15.9-5.5,24.5-7.8c-5.8,6.4-14.5,7.7-23.3,10C266.6,322.3,266.3,321.7,266.8,320.5z"/>
<path class="st15" d="M190.3,347.8c-7.6-0.7-12.1-6.1-15.9-13C180.6,337.3,185.7,341.7,190.3,347.8z"/>
<path class="st15" d="M160.1,406.7c-6.9-1-12.9-4.4-16.5-11.3C149.8,397.8,155.3,401.3,160.1,406.7z"/>
<path class="st4" d="M329.9,290.5c4.4,1.5,5.9,3.7,2.8,7.3c-1.7,2-3.6,2.1-5.4,0.3C324,294.7,326.1,292.4,329.9,290.5z"/>
<path class="st4" d="M447.2,295.9c5-1.7,5.7,0.9,5.1,4.4c-0.3,1.8-1,4.7-3.7,4C443.5,302.9,446.3,299.2,447.2,295.9z"/>
<path class="st14" d="M320.5,208.5c0.6-4.2,2.2-5.7,5.4-2.5c1.5,1.5,2.9,3.3,0.8,5.3C323.6,214.1,322.2,211.4,320.5,208.5z"/>
<path class="st15" d="M446.9,231.1c-3.4,0.7-6.5,0.8-6.4-3.7c0.1-2,1.1-3.5,3.2-3.3C448.1,224.5,447.7,227.6,446.9,231.1z"/>
<path class="st4" d="M155.2,432.9c6.8,0.6,13.2,3.4,18.9,8.6C167.3,440.7,161.7,436.5,155.2,432.9z"/>
<path class="st4" d="M309.8,251.9c1.5,4.2-0.1,5.8-3.6,4.9c-2.4-0.6-3-3-2.1-5C305.4,248.4,307.5,248,309.8,251.9z"/>
<path class="st3" d="M75.4,265.6c-5.2-7.1-3.6-15.2-0.6-23.7c0.6-0.3,0.7,0.5,0.6,0.9c-0.1,0.9-0.2,1.3-0.3,2.4
	c0,4.1-0.1,7.6,0.2,11.7C75.5,259.9,75.5,262.4,75.4,265.6z"/>
<path class="st15" d="M398.8,216.4c1.7,3.3,2.1,6-1.8,6.5c-3.6,0.4-3.3-3.2-3.5-5.1C393.1,212.9,396,214.5,398.8,216.4z"/>
<path class="st15" d="M315.1,276.3c0.1-4.1,2-5.2,5.3-3.8c1.6,0.7,2.2,2.2,1.5,3.7C320.1,279.8,317.7,278.4,315.1,276.3z"/>
<path class="st7" d="M259.2,364.9c2.2,0.6,3.6,1.1,5.6,1.6c0.6,0.1,0.6,0.9,0.6,1.3c-6.7,0.4-13.3,0.4-20.8,0.3
	c1.3-0.9,3.4-1.7,6.1-2.9C253.5,365,256,364.9,259.2,364.9z"/>
<path class="st15" d="M293.3,427.5c-3.4,4.7-8.6,5.2-14.8,3.8C282.8,429.8,287.7,428.6,293.3,427.5z"/>
<path class="st7" d="M197.8,155.7c0-6.4,4.5-6.6,9.7-6C204.8,151.9,201.6,153.8,197.8,155.7z"/>
<path class="st3" d="M331.9,441.1c0.8-7.5,7.9-4.5,12.8-6.8C341.1,436.5,336.8,438.8,331.9,441.1z"/>
<path class="st2" d="M271.4,142.8c4.7-2.5,8.9,2.2,14.6,2.1c0.8,0.5,0.8,0.9,0.9,1.7C281.7,146.6,276.8,145.1,271.4,142.8z"/>
<path class="st1" d="M205.1,247.3c0.2-2.6,0.8-4.4,1.3-6.9c0-0.6,0.8-0.7,1.2-0.8c0.3,7.1,0.2,14.2,0,22.1
	C203,258.4,206.7,252.8,205.1,247.3z"/>
<path class="st4" d="M76.1,219c0.6-0.6,1.2-0.8,2.3-0.9c-0.4,4.9-1.3,9.9-2.5,15.5c-0.7-1.2-1.2-3.1-1.6-5.6c-0.1-2.3-0.2-4,1.3-6
	C76,220.8,76.1,220.2,76.1,219z"/>
<path class="st11" d="M225.5,186.5c-2.7,3.6-7.2,5.2-12.3,6.9C215.7,189.4,220.4,188.1,225.5,186.5z"/>
<path class="st1" d="M287.5,454.9c1.8-5.2,5.8-4.8,10.8-3.1C295.3,453,291.7,454,287.5,454.9z"/>
<path class="st15" d="M204.8,247.5c2.9,3.8,0.4,9.2,2.6,14.6c0.5,2,0.6,3.4,0.7,5.5c-0.9-0.3-1.7-1.3-2.9-2.6
	C204.8,259.2,204.7,253.7,204.8,247.5z"/>
<path class="st1" d="M120.2,215.3c0,4,1.8,8.8-1.9,13.2C118.5,224.5,119.1,220.1,120.2,215.3z"/>
<path class="st1" d="M208.6,239.1c-0.1-4.4,1.7-8.5,5.8-12C213,230.9,211.1,234.8,208.6,239.1z"/>
<path class="st1" d="M301.7,451.5c1.3-4.4,4.6-4.9,9.2-3.2C308.4,449.5,305.4,450.6,301.7,451.5z"/>
<path class="st4" d="M178.2,443.4c2.7-2.3,4.6-0.4,6.6,2C182.6,446.2,180.1,446.5,178.2,443.4z"/>
<path class="st11" d="M211.4,193.9c-0.2,2.8-2.2,4.2-5.5,4.7C206.1,195.9,209.2,195.7,211.4,193.9z"/>
<path class="st4" d="M75.6,256.7c-2.1-2.8-1.2-6.6-1.4-11c0.2-0.9,0.4-1.2,1-1.1C75.6,248.6,75.7,252.2,75.6,256.7z"/>
<path class="st10" d="M232.5,51.1c-0.5,2.6-2.6,3.1-4.9,2.7c-0.4-0.1-0.7-0.6-1-1c0.7-0.4,1.4-0.8,2.4-1.5
	C230.1,51,231,50.9,232.5,51.1z"/>
<path class="st1" d="M99.4,345.6c-2.7-1.3-3.8-2.8-3.1-6c1.4,1.1,2.6,2.8,4,5C100.2,345.5,100,345.8,99.4,345.6z"/>
<path class="st4" d="M192.9,448.8c0.3-0.4,1-0.4,2.2-0.6c2.2,0.6,3.8,1.4,5.7,2.6C198.5,450.6,196,449.8,192.9,448.8z"/>
<path class="st7" d="M145.1,78.9c-0.1,2.7-2.1,3.5-5.2,3.6C141.1,81.3,142.8,80.2,145.1,78.9z"/>
<path class="st15" d="M141.4,228.8c0.3,0,1,0.1,1.3,0.1c-0.1,2-0.5,3.9-1,6.4c-0.5-1.3-0.9-3.3-1.3-5.8
	C140.4,228.9,141.1,228.9,141.4,228.8z"/>
<path class="st14" d="M357.7,296.6c-2.5,3.2-4.1,0.3-6.4-1.3c-0.4-0.4-0.3-0.3-0.3-0.4c0.8-0.6,1.6-0.9,3.2-0.3
	C355.6,295.4,356.5,295.8,357.7,296.6z"/>
<path class="st12" d="M267,118.2c-2.5,0-5,0-8.2-0.1c1.1-0.5,2.9-1,5.1-1.7c1-0.4,1.6-0.5,2.6-0.2c0.8,0.4,1.3,0.6,1.1,1.3
	C267.2,118.1,267.1,118.1,267,118.2z"/>
<path class="st13" d="M335.7,177.6c1.3-0.4,2.7-0.4,4.6-0.5C339.5,179.5,337.8,180.1,335.7,177.6z"/>
<path class="st15" d="M267.9,118.1c-0.7,0-0.9-0.8-0.9-1.2c2.7-0.3,5.4-0.2,8.6,0.4C273.6,117.9,271.1,118,267.9,118.1z"/>
<path class="st15" d="M274.9,213c1.7-0.5,3.4,0.1,4.8,2.3C277.9,215.9,276.4,214.9,274.9,213z"/>
<path class="st1" d="M123.8,204.4c0.4,1.5,0.4,3.3,0.4,5.9c-0.5,0.7-0.9,0.8-1.7,0.9C122.6,209.1,123,206.9,123.8,204.4z"/>
<path class="st4" d="M76.3,280.2c-0.6-1.6-0.9-3.6-1-6.1C76.5,275.6,77.3,277.5,76.3,280.2z"/>
<path class="st4" d="M149.8,429.3c1.7-0.4,3.5,0,4.7,2.3C152.8,432.1,151.2,431.2,149.8,429.3z"/>
<path class="st7" d="M153.1,105c0-1.8,1.4-2.8,3.9-3.1C156.2,102.9,154.9,103.9,153.1,105z"/>
<path class="st14" d="M349.2,272.9c-1.4,0.6-2.9,0.7-5.3,0.6C344.5,269.2,346.7,270.5,349.2,272.9z"/>
<path class="st8" d="M93.6,126.3c-0.4,1.1-1.3,2.4-2.5,4.1C91.6,129.3,92.4,127.9,93.6,126.3z"/>
<path class="st14" d="M379.4,411.3c0.3-0.5,0.8-0.9,1.5-1.5C380.6,410.3,380.1,410.9,379.4,411.3z"/>
<path class="st3" d="M266.7,320.2c0.5,0.5,0.5,1.1,0.5,2.2c-0.8,0.6-1.6,0.8-3.1,1c-0.6,0-0.6-0.8-0.6-1.2
	C264.3,321.2,265.2,320.7,266.7,320.2z"/>
<path class="st15" d="M370.4,384.8c-0.3,0.9-1.1,1.9-2.4,3.1C367.5,386.4,368.1,385.2,370.4,384.8z"/>
<path class="st8" d="M115.5,140.4c0.1-1.1,0.7-2.5,1.5-4.3c0.3-0.5,0.8-0.4,1.1-0.4C117.6,137.3,116.8,138.8,115.5,140.4z"/>
<path class="st1" d="M154.4,197.1c0.9-1.4,1.8-2.4,3.2-3.6c-0.4,1.3-1.3,2.8-2.6,4.6C154.6,198.2,154.5,197.9,154.4,197.1z"/>
<path class="st11" d="M206.9,429.5c-1-0.8-1.4-1.2-2.1-2.1c2-0.2,4.2,0.1,6.8,0.9c0.4,0.5,0.1,0.5,0,0.6
	C210.3,430,209,430.3,206.9,429.5z"/>
<path class="st4" d="M187.6,447c1-0.1,2.4,0.3,4.1,0.9C190.7,448,189.3,447.7,187.6,447z"/>
<path class="st14" d="M383.9,407.3c0.1-0.3,0.4-0.6,0.8-0.8C384.9,406.9,384.7,407.2,383.9,407.3z"/>
<path class="st14" d="M351.3,346c-0.8-1.2,0.2-1.7,1.6-2.2C352.8,344.4,352.2,345,351.3,346z"/>
<path class="st8" d="M97.6,123c-0.7,0.8-1.5,1.3-2.6,2.1c-0.2-1.1-0.1-2.4,2-2.9C97.5,122,97.6,122.7,97.6,123z"/>
<path class="st13" d="M342.5,175.8c0.3-0.6,0.9-1.3,1.9-2.2C344.1,174.3,343.5,175,342.5,175.8z"/>
<path class="st1" d="M285.6,387.1c0.8-0.5,2-0.9,3.8-1.3C288.6,386.4,287.3,386.8,285.6,387.1z"/>
<path class="st1" d="M278.6,388.4c0.7-0.4,1.8-0.7,3.3-0.9C281.2,387.9,280.1,388.2,278.6,388.4z"/>
<path class="st13" d="M377.5,127.5c0.6,0.2,1.1,0.7,1.8,1.5C378.9,128.8,378.2,128.4,377.5,127.5z"/>
<path class="st15" d="M172.4,331.9c-1.4,0.2-2.7-0.4-3.3-2.6C170,329.6,171.1,330.5,172.4,331.9z"/>
<path class="st11" d="M231.8,185.7c-1.6,0.4-2.8,0.4-4.6,0.5c0.3-1.4,1.7-1.7,3.8-1.9c0.6,0,1,0,1.2,0.1
	C232.3,184.6,232.1,185.4,231.8,185.7z"/>
<path class="st14" d="M351.1,275.1c-0.7-0.1-1.1-0.4-1.6-1.3C350.2,273.6,351.3,273.4,351.1,275.1z"/>
<path class="st2" d="M233.9,76.4c0.8-0.5,2.1-0.8,3.9-1.1C237.5,77.2,235.9,76.6,233.9,76.4z"/>
<path class="st11" d="M204.4,426.5c-1.2,0.3-2.8,0.1-4.7-0.5C200.9,425.2,202.6,424.5,204.4,426.5z"/>
<path class="st12" d="M232.7,295.5c0.4,1,0.4,1.7,0.4,2.4c-1.4,0-1.5-1-1.7-2.5C231.7,295,232,295.1,232.7,295.5z"/>
<path class="st3" d="M348.1,432.6c0.7-0.6,1.8-1.3,3.5-2C350.9,431.1,349.8,431.8,348.1,432.6z"/>
<path class="st15" d="M99.3,345.6c-0.1-0.5,0.5-0.5,0.8-0.4c0.6,0.7,0.9,1.4,1.3,2.7C100.8,347.6,100.1,346.8,99.3,345.6z"/>
<path class="st15" d="M163.5,408.6c-0.8,0.2-1.8-0.2-3.2-1C161,407.5,162.1,407.8,163.5,408.6z"/>
<path class="st8" d="M108.8,148.9c0-0.6,0.4-1.3,1.2-2.2C110,147.2,109.6,148,108.8,148.9z"/>
<path class="st15" d="M366.9,388.3c-0.1,0.4-0.5,0.9-1.2,1.5C365.7,389.4,366.2,388.9,366.9,388.3z"/>
<path class="st15" d="M354.4,294.7c-0.5,0.4-1.4,0.4-2.8,0.3C351.8,293.7,353,293.9,354.4,294.7z"/>
<path class="st0" d="M59.7,188.6c0.2,0.6,0,1.3-0.5,2.5C59.1,190.5,59.2,189.6,59.7,188.6z"/>
<path class="st14" d="M304.9,300.6c-0.4,0.9-0.9,1.7-2.1,2.3c-0.8-1.5-0.4-2.4,1.2-2.8C304.6,300.3,304.8,300.5,304.9,300.6z"/>
<path class="st11" d="M301.3,304.6c-0.5,1.1-0.9,1.7-1.8,2.5c-0.5,0.2-0.6,0.1-0.6,0.1c-0.7-1.2-0.5-2.3,0.9-3.5
	C300.8,303.7,301.1,303.8,301.3,304.6z"/>
<path class="st11" d="M338.9,359c0.1-0.4,0.5-0.9,1.3-1.4C340.1,357.9,339.7,358.5,338.9,359z"/>
<path class="st15" d="M102.9,351.4c-0.2,0.6-0.6,0.6-1.4,0.6c-0.5-0.9-0.4-1.7-0.2-3.3C101.9,349.1,102.4,350,102.9,351.4z"/>
<path class="st3" d="M134.9,182.1c0.1,0.5-0.2,1-0.7,1.8C134.2,183.5,134.4,182.9,134.9,182.1z"/>
<path class="st1" d="M315.7,447.6c-0.3-0.1,0.4-0.6,0.6-0.7C316.6,447.3,316.4,447.6,315.7,447.6z"/>
<path class="st1" d="M326.2,443.5c-0.2-0.1-0.1-0.6-0.1-0.8c0.1-0.2,0.4-0.1,0.6,0C327,443.3,326.8,443.5,326.2,443.5z"/>
<path class="st4" d="M214.3,454c0-0.2,0.4-0.1,0.5,0C214.9,454.1,214.3,454.2,214.3,454z"/>
<path class="st1" d="M323,445.6c-0.2-0.2,0.4-0.6,0.5-0.7C323.8,445.4,323.6,445.7,323,445.6z"/>
<path class="st1" d="M330.1,441.9c-0.2-0.1,0.5-0.6,0.7-0.6C331,441.7,330.8,442,330.1,441.9z"/>
<path class="st3" d="M353.1,430.1c-0.1-0.4,0.2-0.7,0.9-1.1C354.3,429.5,354,429.9,353.1,430.1z"/>
<path class="st15" d="M280.2,216.5c0.4-0.4,0.8-0.3,1.2,0.4c0.1,0.3-0.6,0.4-0.6,0.4S280.3,216.8,280.2,216.5z"/>
<path class="st8" d="M70.3,162C70.3,162.1,70.2,162.1,70.3,162C70.3,162.1,70.2,161.9,70.3,162z"/>
<path class="st12" d="M329.4,172.1c-0.2,0-0.2-0.1-0.3-0.1C329,172,329.5,172.1,329.4,172.1z"/>
<path class="st12" d="M331.1,174c-0.1,0.1-0.2-0.1-0.3-0.1C330.7,173.9,331.3,173.9,331.1,174z"/>
<path class="st3" d="M138,176.7c-0.1-0.1,0.1-0.2,0.1-0.3C138.1,176.4,138,176.8,138,176.7z"/>
<path class="st7" d="M194.2,157.8c-0.1-0.1,0-0.3,0-0.3C194.3,157.5,194.4,157.9,194.2,157.8z"/>
<path class="st3" d="M136.5,179.8c0.3,0-0.1,0.6-0.3,0.7C135.8,180.3,135.9,180,136.5,179.8z"/>
<path class="st5" d="M239.9,182.7c0.1,0.4-0.3,0.6-0.9,0.5C238.7,183.2,239.4,182.6,239.9,182.7z"/>
<path class="st7" d="M212.3,148.9c-0.2-0.2,0.4-0.5,0.5-0.5C213,148.8,212.9,149,212.3,148.9z"/>
<path class="st1" d="M127.6,195.5c0.2-0.1-0.1,0.7-0.2,0.9C127,196.1,127.1,195.8,127.6,195.5z"/>
<path class="st7" d="M164.7,146.3c-0.1-0.2,0.1-0.2,0.1-0.3S164.8,146.5,164.7,146.3z"/>
<path class="st1" d="M125.8,200.8c0.2,0.3,0,0.6-0.5,1C125,201.5,125.2,201.2,125.8,200.8z"/>
<path class="st8" d="M112,145.2c0.1,0,0,0.2-0.1,0.3C111.9,145.6,111.9,145.2,112,145.2z"/>
<path class="st7" d="M168.6,144.3c0.1,0.3-0.1,0.5-0.6,0.7C167.7,144.6,167.9,144.3,168.6,144.3z"/>
<path class="st14" d="M387.3,404.4c0-0.1-0.1,0.1-0.1,0.1C387.1,404.5,387.3,404.4,387.3,404.4z"/>
<path class="st15" d="M282.6,218.3c0.5-0.2,0.8,0,0.8,0.7C282.9,219.3,282.6,219,282.6,218.3z"/>
<path class="st1" d="M215.5,226.6c-0.2-0.4,0-0.8,0.7-1.2C216.6,225.8,216.3,226.2,215.5,226.6z"/>
<path class="st3" d="M185.3,228.4c0.1,0.2-0.4,0.4-0.7,0.5c-0.5-0.3-0.4-0.7,0.2-1.1C185.1,227.7,185.3,228.2,185.3,228.4z"/>
<path class="st1" d="M116.8,232.8c0.2,0.2,0.1,0.5-0.2,1C116.1,233.5,116.1,233.2,116.8,232.8z"/>
<path class="st7" d="M170.3,142.8c0.1,0.2,0,0.3,0,0.3S170.2,142.6,170.3,142.8z"/>
<path class="st8" d="M113.7,142.5c-0.1-0.2,0.1-0.5,0.5-1C114.6,141.8,114.4,142.1,113.7,142.5z"/>
<path class="st0" d="M75.5,244.5c0,0.4-0.7,0.4-1,0.4c-0.2-0.5,0-0.9,0.5-1.5C75.3,243.2,75.6,244,75.5,244.5z"/>
<path class="st14" d="M301.6,305.1c-0.4,0.1-0.1-0.2-0.1-0.5c0.1-0.6,0.2-0.9,0.7-1c0.5,0.2,0.4,0.1,0.4,0.1
	C302.5,304.1,302.3,304.6,301.6,305.1z"/>
<path class="st8" d="M121.1,134.6c0.1,0.1-0.1,0.2-0.1,0.3C121,134.9,121.1,134.4,121.1,134.6z"/>
<path class="st15" d="M168.9,328.4c-0.3,0.1-0.8-0.4-1.5-1.2C167.7,327.1,168.2,327.5,168.9,328.4z"/>
<path class="st15" d="M174.2,333.8c-0.3,0-0.7-0.3-1.5-1.1C173,332.7,173.5,333,174.2,333.8z"/>
<path class="st9" d="M75.5,221.7c0.2,1.4-0.2,3-0.9,5.1C72.6,225.3,72.1,223.4,75.5,221.7z"/>
<path class="st4" d="M72.4,332.5c0.4-1.3,0.8-2.5,1.2-3.8c0-0.1,1.2,0.1,1.3,0.4c0.8,1.6-0.3,2.5-2.1,3.3
	C72.4,332.5,72.4,332.5,72.4,332.5z"/>
<path class="st3" d="M148.8,302.4c0.9,1,1.5,2.4,2.2,4.4C148.5,306.8,147.2,305.6,148.8,302.4z"/>
<path class="st3" d="M206.4,429.7c1.1-0.6,2.4-0.6,4.3-0.7c0.7,0.3,0.8,0.6,1,1.3C209.9,432.3,208.1,432.7,206.4,429.7z"/>
<path class="st8" d="M219.1,365c1.8-0.1,4,0.2,6.6,0.9C223.8,367.5,221.4,368.4,219.1,365z"/>
<path class="st8" d="M210.1,361.3c0.9-0.1,1.9,0.3,3.2,1.1C212.1,364,210.9,363.8,210.1,361.3z"/>
<path class="st16" d="M310.1,63.2c24.6,5.3,45.5,18.5,65.2,33.7c5.6,4.3,10.6,9.4,16,14c4.7,4,4.6,7.8-0.3,12.2
	c-4.4-4-7.1-11.1-15.2-5.7c-1.4,1-3.5-0.4-4.7-1.8c-5.8-6.9-15.7-9-20.9-16.1c-7.7-10.7-20.9-15.1-28.2-25.9
	C318.9,69.1,311.4,70.4,310.1,63.2z"/>
<path class="st1" d="M124.5,379.4c0.3-0.1,0.7,0.2,1.2,1C125.5,380.4,125.1,380.1,124.5,379.4z"/>
<path class="st5" d="M231.8,186c-0.4,0-0.1-0.7,0.2-1.1c0.9-0.1,1.6,0.1,2.3,0.3C233.7,185.5,233,185.7,231.8,186z"/>
<path class="st7" d="M302.9,303.4c-0.2,0.4-0.8,0.8-1.1,0.9c-1.1,0.7-1.8,1.3-2.8,2.4c-10,6.2-17.4-1.6-25.6-4.5
	c-3.2-1.1-1.8-3.9,0.8-5c4-1.7,7-4.1,9-8.7c4.8-4.9,8.6-3,12.3,0.9c3,3.2,7.3,5.2,8.9,10.3C304.1,301.2,303.6,302,302.9,303.4z"/>
<path class="st7" d="M264.9,306.6c-2.2-0.3-2.9-1.4-1.9-2.9c0.3-0.5,1.7-0.8,2.1-0.6C266.7,304,266.7,305.2,264.9,306.6z"/>
<path class="st12" d="M281.7,193.6c8.8,0.1,14.8,6.4,20.2,12.4c5.1,5.7-1.4,8.5-5.6,11.9c-7.5-2.4-6.3-10.2-10-15
	C284.5,200.3,283.4,197.1,281.7,193.6z"/>
<path class="st12" d="M270.8,188.5c3.2-0.7,6.5-0.1,8.8,3.8C274.4,197.3,272.9,192.8,270.8,188.5z"/>
<path class="st2" d="M331,251.7c5.1-2.2,8.2-0.5,8.8,4.2c0.4,3.2-1.9,5.2-4.9,4.8C329.8,260,328.9,256.6,331,251.7z"/>
<path class="st16" d="M396.1,189.2c-1.1,2.3,0.1,6.4-4.1,6.5c-2,0-3-1.8-2.8-3.7c0.4-3.6,3-3.7,6.4-3
	C396.1,189.2,396,189.2,396.1,189.2z"/>
</svg>
